HIERARCHY
ROOT Hips
{
	OFFSET	0.00	0.00	0.00
	CHANNELS 6 Xposition Yposition Zposition Zrotation Xrotation Yrotation
	JOINT LeftUpLeg
	{
		OFFSET	 0.126116	-0.014019	-0.065224
		CHANNELS 3 Zrotation Xrotation Yrotation
		JOINT LeftLeg
		{
			OFFSET	 0.000000	 0.000000	 0.569914
			CHANNELS 3 Zrotation Xrotation Yrotation
			JOINT LeftFoot
			{
				OFFSET	 0.000000	 0.000000	 0.544423
				CHANNELS 3 Zrotation Xrotation Yrotation
				JOINT LeftToeBase
				{
					OFFSET	 0.000000	 0.000000	 0.207117
					CHANNELS 3 Zrotation Xrotation Yrotation
					End Site
					{
						OFFSET	 0.000000	 0.000000	 0.207117
					}
				}
			}
		}
	}
	JOINT RightUpLeg
	{
		OFFSET	-0.124023	-0.008373	-0.065224
		CHANNELS 3 Zrotation Xrotation Yrotation
		JOINT RightLeg
		{
			OFFSET	 0.000000	 0.000000	 0.570047
			CHANNELS 3 Zrotation Xrotation Yrotation
			JOINT RightFoot
			{
				OFFSET	 0.000000	 0.000000	 0.544354
				CHANNELS 3 Zrotation Xrotation Yrotation
				JOINT RightToeBase
				{
					OFFSET	 0.000000	 0.000000	 0.207540
					CHANNELS 3 Zrotation Xrotation Yrotation
					End Site
					{
						OFFSET	 0.000000	 0.000000	 0.207540
					}
				}
			}
		}
	}
	JOINT Spine
	{
		OFFSET	 0.000184	-0.007763	 0.117403
		CHANNELS 3 Zrotation Xrotation Yrotation
		JOINT Spine1
		{
			OFFSET	 0.000000	 0.000000	 0.137269
			CHANNELS 3 Zrotation Xrotation Yrotation
			JOINT Spine2
			{
				OFFSET	 0.000000	 0.000000	 0.156879
				CHANNELS 3 Zrotation Xrotation Yrotation
				JOINT LeftShoulder
				{
					OFFSET	 0.080501	-0.002496	 0.160144
					CHANNELS 3 Zrotation Xrotation Yrotation
					JOINT LeftArm
					{
						OFFSET	 0.000000	 0.000000	 0.164363
						CHANNELS 3 Zrotation Xrotation Yrotation
						JOINT LeftForeArm
						{
							OFFSET	 0.000000	 0.000000	 0.364576
							CHANNELS 3 Zrotation Xrotation Yrotation
							JOINT LeftHand
							{
								OFFSET	 0.000000	 0.000000	 0.360812
								CHANNELS 3 Zrotation Xrotation Yrotation
								JOINT LeftHandIndex1
								{
									OFFSET	 0.000000	 0.000000	 0.086006
									CHANNELS 3 Zrotation Xrotation Yrotation
									JOINT LeftHandIndex2
									{
										OFFSET	 0.000000	 0.000000	 0.047236
										CHANNELS 3 Zrotation Xrotation Yrotation
										JOINT LeftHandIndex3
										{
											OFFSET	-0.004284	-0.000551	 0.038166
											CHANNELS 3 Zrotation Xrotation Yrotation
											End Site
											{
												OFFSET	-0.004284	-0.000551	 0.038166
											}
										}
									}
								}
							}
						}
					}
				}
				JOINT Neck
				{
					OFFSET	 0.000000	 0.000000	 0.176489
					CHANNELS 3 Zrotation Xrotation Yrotation
					JOINT Head
					{
						OFFSET	 0.000000	-0.001747	 0.077940
						CHANNELS 3 Zrotation Xrotation Yrotation
						End Site
						{
							OFFSET	 0.000000	-0.001747	 0.077940
						}
					}
				}
				JOINT RightShoulder
				{
					OFFSET	-0.080363	 0.000306	 0.159706
					CHANNELS 3 Zrotation Xrotation Yrotation
					JOINT RightArm
					{
						OFFSET	 0.000000	 0.000000	 0.164196
						CHANNELS 3 Zrotation Xrotation Yrotation
						JOINT RightForeArm
						{
							OFFSET	 0.000000	 0.000000	 0.365611
							CHANNELS 3 Zrotation Xrotation Yrotation
							JOINT RightHand
							{
								OFFSET	 0.000000	 0.000000	 0.360648
								CHANNELS 3 Zrotation Xrotation Yrotation
								JOINT RightHandIndex1
								{
									OFFSET	 0.000000	 0.000000	 0.069977
									CHANNELS 3 Zrotation Xrotation Yrotation
									JOINT RightHandIndex2
									{
										OFFSET	 0.000000	 0.000000	 0.052305
										CHANNELS 3 Zrotation Xrotation Yrotation
										JOINT RightHandIndex3
										{
											OFFSET	 0.009002	-0.000782	 0.042196
											CHANNELS 3 Zrotation Xrotation Yrotation
											End Site
											{
												OFFSET	 0.009002	-0.000782	 0.042196
											}
										}
									}
								}
							}
						}
					}
				}
			}
		}
	}
}
MOTION
Frames:    11
Frame Time: 0.03333334
 0.013732	 0.059655	 1.202907	 5.028247	-1.087874	-2.727090	-0.464654	-12.577850	-171.064900	 0.990547	-38.406330	 0.396250	 50.060460	 79.781480	-54.505750	-2.369561	 31.587540	-0.069309	-5.448635	-30.015560	-176.831000	 11.194370	-52.421470	 9.523567	 23.348730	 79.248200	-19.605660	 2.358889	 33.012780	 0.103508	-6.492903	 8.554232	 2.040827	-2.001050	 1.716271	-1.455571	 3.232299	-2.000384	 1.615995	-93.958510	 58.955280	 175.346600	 26.011390	 44.673720	-23.172980	-1.906166	-2.614919	-25.604930	-1.760779	-25.679650	-8.328753	-4.870121	 19.243640	-2.790936	-3.878466	 21.511970	 2.199641	-4.806218	 5.569562	 0.145561	-0.070543	-5.081512	 0.186895	 1.125499	 1.867983	 2.712523	 89.773820	 61.654400	 179.980300	-20.261660	 53.289150	 12.356320	-1.716276	-1.955661	 9.897272	-4.746283	-11.019950	 0.564484	 6.291848	 24.666810	-0.536945	 1.910647	 44.496540	-7.015521	 0.559414	 24.130630	 3.551512
 0.013488	 0.056040	 1.202919	 5.315877	-0.828210	-2.739764	-0.710703	-12.677150	-171.081300	 1.109514	-38.352080	 0.469598	 49.604410	 79.741130	-54.131680	-2.369082	 31.668050	-0.071128	-6.225479	-30.651520	-176.865800	 11.647680	-52.032260	 9.837966	 31.710500	 81.324020	-28.479040	 2.358957	 33.003320	 0.103296	-6.648736	 8.370112	 1.959410	-1.989088	 1.614552	-1.378485	 3.170859	-2.081258	 1.589230	-94.028180	 58.967740	 175.196400	 26.286580	 44.394570	-23.227410	-2.037982	-2.618909	-26.195160	-1.684069	-26.155980	-8.649879	-4.867763	 19.304290	-2.794977	-3.874565	 21.561760	 2.195680	-4.805338	 5.579919	 0.144954	-0.055941	-5.092579	 0.206986	 1.108894	 1.805291	 2.671599	 89.746930	 61.702420	 179.916000	-20.037350	 53.478060	 11.878420	-1.940843	-2.014445	 9.984879	-4.837972	-11.181940	 0.465192	 6.285110	 24.177440	-0.542849	 1.969134	 44.015490	-7.067521	 0.664439	 23.666760	 3.498843
 0.012706	 0.039686	 1.202772	 6.109161	 0.013180	-2.888627	-1.396605	-12.640910	-171.064600	 1.434779	-37.987820	 0.666051	 48.828360	 79.754790	-53.572060	-2.367234	 31.970370	-0.077996	-8.194202	-32.929150	-176.900800	 12.717370	-50.110820	 10.418020	 85.977880	 83.607270	-84.597020	 2.359760	 32.883310	 0.100514	-7.054803	 7.721720	 1.785842	-1.954760	 1.464695	-1.098783	 2.965891	-2.394898	 1.476605	-94.245160	 58.991840	 174.730600	 26.929870	 43.235320	-23.557600	-2.551453	-2.597458	-28.390550	-1.587264	-27.956220	-9.268972	-4.857317	 19.558480	-2.809008	-3.860282	 21.743680	 2.181167	-4.800430	 5.637746	 0.141567	-0.016937	-5.136967	 0.273171	 1.020652	 1.610222	 2.572443	 89.645410	 61.860740	 179.671600	-19.274920	 54.120010	 10.117690	-2.828592	-2.257237	 10.342010	-5.296995	-11.840780	-0.042173	 6.259906	 22.497870	-0.577352	 2.149946	 42.469910	-7.227342	 1.031888	 22.014100	 3.320163
 0.012117	 0.014204	 1.202229	 6.476359	 0.721953	-3.299442	-1.694599	-11.658710	-170.833000	 1.613972	-37.095040	 0.760790	 48.942940	 79.904000	-53.805110	-2.363190	 32.605830	-0.092556	-8.236560	-35.246690	-176.439400	 12.861540	-46.675000	 10.013600	 112.995400	 80.263220	-113.251100	 2.358778	 33.027890	 0.103872	-7.213972	 6.978965	 1.895262	-1.907984	 1.906183	-0.784410	 2.788137	-2.871151	 1.321767	-94.413750	 58.977020	 174.373600	 26.864220	 41.647130	-24.306650	-3.391970	-2.352850	-30.718090	-1.835667	-30.183020	-8.796649	-4.838421	 19.967960	-2.821329	-3.839694	 22.004300	 2.160253	-4.785666	 5.811470	 0.131362	 0.005275	-5.219090	 0.328017	 0.883098	 1.410693	 2.540405	 89.511910	 61.998850	 179.347500	-18.285620	 54.758830	 8.011893	-4.200250	-2.587038	 10.607290	-6.218532	-12.781420	-1.227000	 6.222705	 20.423400	-0.653729	 2.361286	 40.544170	-7.412189	 1.489619	 19.891310	 3.110198
 0.011168	-0.017238	 1.201112	 6.641093	 1.010908	-3.624188	-1.972780	-9.748492	-170.733200	 1.743389	-35.903160	 0.815617	 47.610160	 79.920670	-52.524760	-2.353627	 33.986770	-0.124741	-6.913649	-36.560140	-175.659000	 12.067880	-41.678020	 8.608441	 125.049000	 75.816380	-126.100000	 2.347806	 34.544360	 0.139596	-7.426062	 6.522999	 2.033756	-1.866863	 2.713176	-0.533051	 2.667304	-3.481264	 1.194363	-94.497450	 58.945520	 174.200400	 25.849410	 40.104810	-25.321310	-3.876465	-2.195603	-32.300500	-2.399345	-32.210720	-8.630228	-4.827876	 20.320710	-2.865365	-3.815110	 22.313180	 2.135287	-4.758931	 6.124867	 0.112823	 0.044173	-5.313317	 0.347893	 0.792189	 1.216704	 2.430725	 89.416220	 62.037820	 179.115100	-17.049110	 55.251430	 5.726521	-5.574237	-2.810222	 10.422600	-7.046066	-14.196530	-2.668285	 6.184389	 18.248280	-0.714754	 2.634903	 37.842420	-7.647929	 1.940494	 17.732700	 2.917785
 0.009410	-0.053976	 1.199078	 6.908926	 1.035276	-3.774764	-2.500392	-7.202160	-170.870600	 2.001846	-34.495000	 0.934129	 42.596660	 79.403050	-47.607400	-2.331010	 36.759400	-0.191933	-6.295082	-36.852140	-175.165300	 11.625320	-34.868000	 7.154260	 109.884900	 76.446560	-111.652300	 2.335568	 36.047650	 0.176021	-7.882339	 6.502349	 2.075679	-1.826736	 3.291009	-0.332587	 2.543840	-4.149354	 1.074950	-94.542090	 58.949620	 174.104700	 24.224900	 38.803420	-26.577040	-3.922322	-2.220531	-32.941720	-3.360547	-34.972530	-9.366890	-4.848715	 20.513850	-3.043418	-3.787294	 22.659750	 2.107031	-4.719969	 6.579162	 0.085669	 0.115126	-5.407164	 0.342763	 0.752551	 1.086872	 2.178422	 89.358020	 61.925250	 178.978700	-15.677720	 55.530390	 3.183930	-6.790493	-2.884174	 9.862742	-7.620377	-16.283250	-3.998745	 6.166329	 16.039760	-0.656886	 2.882581	 35.173190	-7.857338	 2.385222	 15.540620	 2.742741
 0.005787	-0.094304	 1.195289	 7.152655	 0.926991	-3.416273	-3.140155	-4.434081	-171.616900	 2.334594	-33.379020	 1.090685	 32.117430	 77.410580	-37.116700	-2.269603	 42.315620	-0.339541	-5.735350	-36.499580	-175.293100	 9.907082	-27.782800	 5.016549	 64.257800	 77.842580	-64.985020	 2.339044	 35.637840	 0.165983	-8.471622	 6.425670	 1.740678	-1.718045	 4.212107	-0.205636	 2.372138	-4.824667	 0.922052	-94.509540	 59.228490	 174.127600	 22.559450	 37.981790	-28.240020	-3.998322	-2.170677	-32.936100	-4.864118	-38.144690	-10.514760	-4.879731	 20.618680	-3.255489	-3.763196	 22.957410	 2.082565	-4.669583	 7.162151	 0.050330	 0.192467	-5.480654	 0.273160	 0.755635	 1.035295	 2.036226	 89.355700	 61.625500	 178.984100	-14.448830	 55.500560	 0.565506	-7.829583	-3.056577	 9.785403	-8.365440	-18.919040	-5.154175	 6.199650	 13.750870	-0.362252	 3.035757	 33.406520	-7.984679	 2.823656	 13.321960	 2.585196
 0.000405	-0.136289	 1.188663	 7.517797	 0.500435	-2.544883	-3.310003	-1.334071	-173.098100	 1.526670	-32.856680	 0.636976	 21.526480	 73.266160	-25.252810	-2.120871	 50.717240	-0.611946	-4.008819	-37.285140	-175.369500	 6.440856	-24.182690	 2.961942	 21.770760	 71.655140	-18.414230	 2.339963	 35.527630	 0.163296	-9.134394	 6.492397	 0.852855	-1.600776	 5.528677	 0.134934	 2.129923	-5.464806	 0.586857	-94.440440	 59.336400	 174.258100	 21.042900	 37.308700	-29.587400	-4.277596	-2.045523	-33.671090	-5.948509	-40.450210	-10.960440	-4.895004	 20.753370	-3.388317	-3.750140	 23.117650	 2.069310	-4.614316	 7.796081	 0.011254	 0.281389	-5.466182	 0.245631	 0.752784	 1.130728	 2.203992	 89.333270	 61.404160	 178.939400	-13.449210	 55.365490	-1.837175	-8.550264	-3.396909	 10.394710	-9.236631	-21.708470	-5.715660	 6.287732	 11.537380	 0.117491	 3.165761	 31.832790	-8.091312	 3.193658	 11.408280	 2.464356
-0.004684	-0.177257	 1.181014	 8.433483	-0.183070	-1.816091	-2.985195	 2.113761	-174.723600	-0.428047	-32.058310	-0.414434	 14.563260	 66.302260	-15.632110	-1.927591	 57.368270	-0.898563	-1.315053	-38.908960	-174.419500	 6.204596	-23.573240	 2.796024	 3.310734	 61.246290	 2.726237	 2.333311	 36.306570	 0.182412	-10.014410	 6.765831	 0.113006	-1.640043	 6.894453	 0.379378	 1.823335	-6.042990	 0.286546	-94.388700	 59.036660	 174.417600	 19.773690	 36.480150	-30.549890	-4.613970	-1.902836	-34.846970	-6.261672	-41.476360	-10.753110	-4.896285	 20.934400	-3.456834	-3.732810	 23.329340	 2.051716	-4.563653	 8.371880	-0.024827	 0.376222	-5.408999	 0.291190	 0.691922	 1.348772	 2.359836	 89.206480	 61.415160	 178.639200	-12.672110	 55.238400	-3.331516	-8.750081	-3.484970	 10.534890	-9.388888	-24.272060	-5.132927	 6.345894	 9.756714	 0.396995	 3.319005	 29.885560	-8.215148	 3.452348	 10.049630	 2.386676
-0.011740	-0.229027	 1.171996	 9.840667	-0.745084	-0.830406	-3.424584	 6.155423	-176.775700	 0.993518	-30.422840	 0.324496	 7.240507	 51.957950	-7.326846	-1.038906	 70.828570	-1.967409	-2.293377	-40.854310	-175.293000	 7.727690	-23.517970	 3.407032	-0.500321	 49.166940	 6.009068	 2.345847	 34.797280	 0.145642	-11.020070	 6.791892	-0.563357	-1.932923	 8.477554	-0.048254	 1.341227	-6.661181	 0.277021	-94.271070	 59.250200	 174.636100	 18.980970	 35.970550	-32.118110	-4.390271	-2.107855	-35.479480	-6.560252	-42.155960	-11.593410	-4.831490	 21.229640	-3.172203	-3.686200	 23.892740	 2.004417	-4.517250	 8.894875	-0.058094	 0.405061	-5.334872	 0.252514	 0.476385	 1.653320	 2.285531	 89.040950	 60.971110	 178.274700	-11.854300	 54.631620	-5.224498	-7.896713	-3.601832	 11.439600	-8.238208	-27.125880	-3.678895	 6.364860	 8.618843	 0.486088	 3.389082	 28.960630	-8.271043	 3.634586	 9.083005	 2.335388
-0.019432	-0.288388	 1.164872	 10.126880	-0.988566	 0.205304	 3.090461	 10.226870	 178.508800	 1.711383	-28.557250	 0.649582	 2.983917	 35.471470	 2.887882	-1.290767	 68.373700	-1.683364	-4.386820	-40.371370	-177.919000	 6.303334	-22.010040	 2.657916	 0.129785	 42.360600	 6.815570	 2.365763	 31.955310	 0.079174	-11.345680	 6.746076	-1.171965	-2.296764	 9.100716	-0.668947	 0.947765	-6.967877	 0.267572	-94.113270	 59.856330	 174.884600	 18.574410	 36.323170	-33.198990	-3.332805	-2.819670	-35.047530	-6.635370	-43.258850	-12.624820	-4.773396	 21.404960	-2.880566	-3.632514	 24.531120	 1.949955	-4.479012	 9.322750	-0.085665	 0.355854	-5.366888	 0.179748	 0.160573	 1.816676	 2.238404	 88.990450	 60.309440	 178.197300	-11.541010	 53.792680	-6.815352	-6.703827	-3.586190	 12.262970	-6.573300	-30.472340	-2.262696	 6.396550	 8.845515	 0.610426	 3.386382	 28.996650	-8.268906	 3.677621	 8.853660	 2.323703
